<svg width="30" height="30" viewBox="0 0 30 30" fill="none" xmlns="http://www.w3.org/2000/svg">
<path fill-rule="evenodd" clip-rule="evenodd" d="M4.84375 8.52H25.1562C25.5877 8.52 25.9375 8.26929 25.9375 7.96V6.56C25.9375 6.2507 25.5877 6 25.1562 6H4.84375C4.41226 6 4.0625 6.2507 4.0625 6.56V7.96C4.0625 8.26929 4.41226 8.52 4.84375 8.52ZM4.84375 16.3325H25.1562C25.5877 16.3325 25.9375 16.0818 25.9375 15.7725V14.3725C25.9375 14.0632 25.5877 13.8125 25.1562 13.8125H4.84375C4.41226 13.8125 4.0625 14.0632 4.0625 14.3725V15.7725C4.0625 16.0818 4.41226 16.3325 4.84375 16.3325ZM25.1562 24.145H4.84375C4.41226 24.145 4.0625 23.8943 4.0625 23.585V22.185C4.0625 21.8757 4.41226 21.625 4.84375 21.625H25.1562C25.5877 21.625 25.9375 21.8757 25.9375 22.185V23.585C25.9375 23.8943 25.5877 24.145 25.1562 24.145Z" fill="white"/>
</svg>
